<?xml version="1.0" standalone="no"?>
<!DOCTYPE svg PUBLIC "-//W3C//DTD SVG 20010904//EN"
 "http://www.w3.org/TR/2001/REC-SVG-20010904/DTD/svg10.dtd">
<svg version="1.0" xmlns="http://www.w3.org/2000/svg"
 width="210.000000pt" height="210.000000pt" viewBox="0 0 210.000000 210.000000"
 preserveAspectRatio="xMidYMid meet">
<metadata>
Created by potrace 1.14, written by Peter Selinger 2001-2017
</metadata>
<g transform="translate(0.000000,210.000000) scale(0.100000,-0.100000)"
fill="#000000" stroke="none">
<path d="M371 1883 c-39 -48 -62 -118 -49 -155 7 -20 5 -33 -7 -52 -10 -14
-13 -26 -7 -26 5 0 12 7 15 15 5 11 17 13 55 8 44 -5 57 -1 111 28 34 19 61
36 61 40 0 3 -10 11 -23 16 -31 14 -91 10 -114 -8 -17 -13 -17 -12 0 8 10 11
35 24 55 28 43 8 107 69 114 109 5 23 2 26 -21 26 -40 0 -91 -41 -120 -95 -32
-59 -58 -75 -36 -21 16 38 20 116 7 116 -5 0 -23 -17 -41 -37z"/>
<path d="M1517 1897 c8 -42 60 -95 106 -109 23 -7 49 -19 57 -27 13 -13 13
-14 -5 -6 -24 10 -61 11 -100 1 -27 -7 -28 -7 -8 -26 41 -38 97 -58 151 -56
49 3 54 1 74 -28 12 -17 26 -32 30 -34 4 -2 8 -8 8 -14 0 -5 -14 1 -32 14 -18
12 -39 24 -48 26 -23 6 -82 4 -88 -3 -4 -3 13 -23 36 -44 42 -38 76 -51 133
-51 30 0 36 -8 53 -70 l7 -25 -18 21 c-25 30 -62 47 -96 46 -48 -1 -48 -5 15
-72 16 -17 46 -35 72 -42 44 -11 56 -27 56 -68 -1 -12 -3 -12 -14 2 -14 19
-75 48 -101 48 -13 0 -13 -5 4 -38 24 -47 67 -91 98 -98 12 -4 23 -11 24 -18
0 -6 2 -19 4 -28 5 -25 -6 -22 -36 10 -15 15 -38 28 -52 30 -23 1 -25 -1 -17
-26 18 -60 30 -81 64 -109 27 -21 36 -35 35 -58 0 -27 -1 -28 -12 -11 -19 31
-59 66 -75 66 -20 0 -7 -87 19 -120 46 -60 49 -67 43 -99 l-7 -33 -13 39 c-7
21 -26 49 -41 62 l-28 24 -6 -24 c-12 -49 11 -130 47 -166 11 -11 10 -19 -4
-47 l-17 -34 -6 37 c-6 41 -21 72 -43 90 -13 11 -16 9 -21 -11 -14 -56 -12
-104 7 -149 l20 -48 -27 -35 c-15 -20 -29 -36 -30 -36 -1 0 3 17 10 38 11 31
11 43 -1 72 -30 70 -45 64 -65 -25 -9 -40 -8 -58 3 -91 l15 -41 -39 -39 -39
-38 16 37 c18 44 19 94 1 125 l-13 24 -15 -24 c-32 -49 -49 -120 -37 -160 5
-20 2 -30 -15 -45 -34 -27 -67 -45 -74 -39 -3 3 0 6 7 6 20 0 51 81 45 120 -8
46 -10 47 -38 19 -20 -21 -72 -109 -67 -116 0 -2 1 -16 1 -33 0 -30 -13 -42
-61 -54 l-27 -6 29 31 c16 17 30 42 30 55 1 13 2 31 3 41 2 32 -23 24 -72 -24
-34 -32 -54 -61 -61 -89 -10 -37 -15 -42 -49 -48 -55 -9 -110 -7 -117 4 -3 5
-18 18 -33 29 l-28 20 -35 -30 c-32 -28 -37 -30 -99 -24 -36 4 -69 11 -75 16
-5 5 -6 9 -2 9 13 0 -24 75 -51 103 -29 31 -76 59 -85 51 -17 -18 31 -134 55
-134 6 0 9 -2 6 -5 -3 -3 -24 2 -47 11 -37 14 -41 20 -41 50 0 44 -36 121 -67
141 -30 20 -34 15 -35 -34 0 -39 15 -82 34 -94 5 -3 0 -9 -11 -12 -12 -3 -19
-1 -15 4 3 5 -6 13 -20 18 -23 9 -24 14 -23 73 1 48 -4 74 -22 110 -12 27 -29
48 -37 48 -8 0 -14 -1 -15 -2 -10 -42 -8 -102 6 -134 l16 -39 -26 27 c-13 15
-31 31 -40 35 -12 7 -12 13 0 48 8 22 14 49 15 61 0 28 -30 114 -41 114 -12 0
-39 -55 -40 -82 0 -13 2 -34 6 -48 7 -24 6 -24 -19 5 -27 31 -27 33 -1 103 8
24 13 56 11 70 -2 15 -5 37 -5 50 -2 61 -71 -14 -71 -78 l0 -35 -19 35 c-15
29 -17 38 -6 50 37 43 60 133 45 175 -6 18 -9 17 -39 -12 -17 -17 -34 -46 -37
-63 -4 -17 -10 -32 -13 -35 -4 -2 -24 12 -45 31 -20 19 -43 34 -51 34 -7 0
-20 3 -29 6 -13 5 -14 1 -6 -25 15 -54 44 -91 87 -112 23 -11 46 -18 50 -16 5
3 16 -8 25 -24 20 -34 20 -34 -20 -13 -17 8 -48 18 -68 21 l-36 6 21 -41 c26
-51 84 -92 129 -92 23 0 40 -7 53 -23 25 -30 24 -40 -3 -23 -28 18 -89 28
-106 17 -10 -6 -8 -14 8 -34 35 -44 88 -70 141 -70 35 1 52 -4 65 -18 17 -19
16 -19 -14 -13 -41 8 -104 -4 -99 -19 2 -7 28 -27 57 -45 43 -25 62 -31 92
-28 21 3 42 8 48 11 5 3 22 0 36 -8 27 -14 27 -14 -23 -21 -27 -3 -58 -12 -68
-20 -16 -12 -14 -15 31 -36 60 -30 108 -33 154 -10 30 15 40 16 70 4 19 -7 29
-13 23 -14 -7 -2 -17 -4 -23 -5 -5 -1 -18 -3 -27 -4 -10 0 -34 -11 -53 -22
l-34 -21 24 -13 c14 -8 48 -17 76 -20 52 -7 95 6 135 41 9 9 29 12 50 10 19
-3 44 -5 56 -5 12 -1 28 -7 35 -14 29 -28 71 -57 83 -57 7 0 32 15 56 33 34
27 57 35 104 40 54 5 63 3 93 -20 25 -18 49 -27 84 -29 52 -2 119 15 125 33 4
10 -87 55 -104 52 -30 -5 -32 5 -3 15 30 11 40 11 65 -2 46 -23 94 -22 152 3
29 13 53 27 53 30 0 10 -68 35 -96 35 -26 0 -27 1 -9 20 16 18 20 18 46 5 15
-8 39 -15 51 -15 27 0 130 59 135 77 5 15 -58 27 -99 19 -31 -6 -31 -6 -13 14
13 14 29 19 64 18 34 -2 57 4 84 21 41 25 79 69 72 81 -7 11 -79 4 -104 -10
-30 -16 -34 -12 -14 15 12 16 28 24 48 25 44 0 96 31 127 76 15 21 27 43 28
48 0 12 -81 -2 -100 -18 -34 -29 -41 -28 -24 6 11 24 23 34 41 36 44 4 83 35
110 90 14 29 24 55 21 57 -10 10 -72 -16 -96 -40 -15 -15 -28 -23 -30 -17 -6
18 18 62 33 62 44 0 97 64 113 138 10 41 9 42 -11 36 -29 -8 -77 -53 -88 -83
-14 -35 -22 -19 -14 27 5 31 13 42 39 55 19 9 40 30 50 51 18 38 29 123 16
131 -10 6 -67 -55 -82 -90 l-12 -30 -4 38 c-3 32 1 42 23 59 15 11 31 32 37
47 10 26 12 90 4 126 -2 11 -5 24 -5 29 -2 20 -51 -59 -57 -91 -8 -41 -20 -43
-26 -2 -3 21 2 39 16 57 39 49 21 225 -19 192 -8 -7 -17 -27 -21 -46 -3 -19
-10 -36 -14 -39 -14 -9 -22 33 -11 54 20 37 12 103 -19 156 l-29 49 -10 -27
c-6 -16 -11 -44 -11 -63 0 -38 -7 -42 -25 -17 -8 10 -10 27 -5 42 11 39 -12
113 -49 160 -18 22 -37 41 -41 41 -16 0 -15 -55 2 -103 22 -63 2 -58 -32 8
-29 57 -62 83 -112 91 -34 6 -35 5 -31 -19z"/>
<path d="M236 1729 c-24 -44 -27 -57 -22 -102 4 -29 7 -67 8 -86 1 -28 3 -31
13 -17 8 10 27 16 50 16 46 0 94 22 130 60 34 35 29 44 -25 44 -29 0 -51 -9
-87 -34 l-48 -35 23 33 c13 17 21 36 18 40 -3 5 -6 32 -7 60 -4 75 -19 81 -53
21z"/>
<path d="M149 1599 c-7 -13 -13 -54 -13 -91 -1 -53 3 -71 19 -90 14 -15 19
-34 17 -55 -4 -44 -18 -42 -25 3 -8 49 -62 108 -65 72 -9 -106 2 -154 42 -186
14 -11 26 -29 26 -41 0 -12 5 -21 10 -21 6 0 9 3 9 8 -4 25 4 41 24 46 31 8
73 50 97 96 20 40 20 40 1 40 -31 0 -88 -31 -100 -54 -10 -18 -11 -15 -7 18 6
45 5 43 36 50 44 8 87 35 115 72 30 39 30 41 -6 47 -28 5 -109 -36 -109 -54 0
-6 -5 -7 -10 -4 -8 5 -7 11 0 21 13 15 -12 108 -35 133 -11 11 -15 9 -26 -10z"/>
<path d="M567 1543 c-3 -4 -5 -203 -5 -440 0 -398 1 -433 16 -434 61 -4 169
-4 180 -1 9 3 12 69 12 283 0 179 4 279 10 279 6 0 10 -6 10 -14 0 -8 4 -16 8
-18 5 -1 24 -25 43 -52 39 -55 49 -70 140 -194 l65 -90 85 115 c46 63 91 123
99 134 8 10 31 41 50 68 19 28 38 51 43 51 4 0 7 -28 6 -62 -1 -35 -1 -162 0
-283 l1 -220 102 1 103 0 3 442 2 442 -112 0 c-62 0 -118 -4 -124 -8 -6 -4
-36 -45 -67 -92 -31 -47 -66 -96 -77 -110 -11 -14 -20 -31 -20 -37 0 -7 -3
-13 -7 -13 -5 0 -24 -25 -43 -55 -19 -30 -37 -55 -40 -55 -5 0 -94 129 -162
233 -38 58 -52 78 -64 91 -5 6 -13 18 -16 27 -6 14 -25 17 -121 18 -64 1 -117
-2 -120 -6z"/>
<path d="M47 1226 c2 -62 26 -107 73 -140 26 -17 34 -31 37 -62 l4 -39 -19 30
c-25 38 -61 71 -89 79 -21 7 -21 6 -8 -44 17 -66 56 -115 101 -130 35 -12 37
-11 66 21 38 44 58 89 58 134 l0 36 -29 -17 c-16 -9 -38 -33 -49 -52 l-20 -35
-4 36 c-3 31 0 37 27 51 32 18 59 58 75 115 l9 33 -32 -6 c-18 -4 -42 -19 -55
-36 -13 -17 -28 -28 -33 -25 -5 4 -9 -2 -9 -12 0 -10 -9 0 -20 22 -23 49 -39
68 -65 83 -19 10 -20 8 -18 -42z"/>
<path d="M181 893 c0 -4 4 -17 9 -28 8 -19 9 -19 9 2 1 12 -3 25 -9 28 -5 3
-10 3 -9 -2z"/>
</g>
</svg>
